<svg xmlns="http://www.w3.org/2000/svg" viewBox="0 0 143.69 117.25"><defs><style>.cls-1{fill:#333;}</style></defs><title>logo-single</title><g id="Layer_12" data-name="Layer 12"><path class="cls-1" d="M66.86,35.3V61.67a8.31,8.31,0,1,1-16.61,0V35.3c0-9.91-7.25-17.86-16-17.86C23.32,17.44,17.74,28.32,17.74,38V61.67A8.37,8.37,0,1,1,1,61.67V8.37A8.39,8.39,0,0,1,9.37,0a8.24,8.24,0,0,1,7.81,5.72,31.25,31.25,0,0,1,17-5C52.21.7,66.86,16.18,66.86,35.3Z"/><path class="cls-1" d="M143.17,35.3V61.67a8.3,8.3,0,1,1-16.6,0V35.3c0-9.91-7.26-17.86-16-17.86C99.64,17.44,94.06,28.32,94.06,38V61.67a8.38,8.38,0,0,1-16.75,0V8.37A8.4,8.4,0,0,1,85.68,0,8.26,8.26,0,0,1,93.5,5.72a31.19,31.19,0,0,1,17-5C128.52.7,143.17,16.18,143.17,35.3Z"/><path class="cls-1" d="M123.82,83.14c-35.19,29.84-77.89,23.55-105,.42-4.21-4.34-9.72-5.72-13.08-1.13C3.06,86,5.41,91.69,9.56,95c43.31,35,101,24,124.34-1.22,3.14-2.6,6.48-7.09,3.19-12.26C135.19,78.57,130.49,77.14,123.82,83.14Z"/></g></svg>